<?xml version="1.0" encoding="UTF-8" standalone="no"?>
<!-- Created with Inkscape (http://www.inkscape.org/) -->

<svg
		width="44.000008"
		height="44.000011"
		viewBox="0 0 11.641668 11.641669"
		version="1.1"
		id="svg5"
		xml:space="preserve"
		inkscape:version="1.2 (dc2aedaf03, 2022-05-15)"
		sodipodi:docname="midiexplorer_logo.svg"
		inkscape:export-filename="..\logo\midiexplorer.svg"
		inkscape:export-xdpi="1117.0908"
		inkscape:export-ydpi="1117.0908"
		xmlns:inkscape="http://www.inkscape.org/namespaces/inkscape"
		xmlns:sodipodi="http://sodipodi.sourceforge.net/DTD/sodipodi-0.dtd"
		xmlns="http://www.w3.org/2000/svg"
		xmlns:rdf="http://www.w3.org/1999/02/22-rdf-syntax-ns#"
		xmlns:cc="http://creativecommons.org/ns#"
		xmlns:dc="http://purl.org/dc/elements/1.1/"><title
     id="title1335">MIDI Explorer Logo</title>
	<sodipodi:namedview
			id="namedview7"
			pagecolor="#ffffff"
			bordercolor="#999999"
			borderopacity="1"
			inkscape:showpageshadow="true"
			inkscape:pageopacity="0"
			inkscape:pagecheckerboard="true"
			inkscape:deskcolor="#d1d1d1"
			inkscape:document-units="px"
			showgrid="false"
			showborder="true"
			borderlayer="true"
			inkscape:zoom="14.638496"
			inkscape:cx="11.203337"
			inkscape:cy="11.476589"
			inkscape:window-width="3840"
			inkscape:window-height="2137"
			inkscape:window-x="2152"
			inkscape:window-y="596"
			inkscape:window-maximized="1"
			inkscape:current-layer="g275"/>
	<defs
			id="defs2"/>
	<g
			inkscape:label="Helm"
			inkscape:groupmode="layer"
			id="layer1"
			transform="translate(-0.52916628,-0.52916378)"><g
       id="g85"
       transform="matrix(0.44757478,0,0,0.44757478,65.389632,108.88963)"
       style="display:inline"><g
         id="g275"
         style="display:inline"><g
           transform="matrix(0.19846228,0,0,0.19846228,-145.03755,-274.9164)"
           id="layer1-5"><path
             style="opacity:1;fill:#000000;fill-opacity:1;stroke:#000000;stroke-width:1.32292;stroke-linecap:round;stroke-linejoin:round;stroke-miterlimit:4;stroke-dasharray:none;stroke-opacity:1"
             d="m 70.278091,184.61161 c 0.314823,-2.44477 1.743422,-6.68163 1.84687,-8.28326 0.103425,-1.60163 0.165398,-3.18547 0,-4.67189 -0.357519,-3.21314 -2.529799,-5.67107 -5.671665,-5.67107 -3.141878,0 -5.490387,3.02701 -5.671072,5.67107 -0.09086,1.33007 -0.06352,2.95595 0,4.67189 0.06352,1.71593 1.532047,5.83849 1.84687,8.28326 0.314823,2.44477 0.255653,4.35383 0,7.4999 -0.255653,3.14606 -1.490805,6.90688 -1.84687,11.28863 -0.356077,4.38176 2.462485,14.85859 2.462485,14.93849 0,0.0799 0.497265,0.57654 0.577155,0.57654 h 5.263457 c 0.07992,0 0.577143,-0.49664 0.577143,-0.57654 0,-0.0799 2.818573,-10.55673 2.462497,-14.93849 -0.356065,-4.38175 -1.591217,-8.14257 -1.84687,-11.28863 -0.255654,-3.14607 -0.314823,-5.05513 0,-7.4999 z"
             id="path864" /><path
			id="path891"
			d="m 101.76621,201.07768 c 1.95132,-1.50609 5.9574,-3.49184 7.16307,-4.55121 1.20566,-1.05939 2.36943,-2.13552 3.30353,-3.30352 2.01923,-2.52484 2.22121,-5.79889 -4.3e-4,-8.02053 -2.22164,-2.22164 -6.0227,-1.74187 -8.0201,0 -1.00475,0.87625 -2.13509,2.04526 -3.30352,3.30352 -1.168433,1.25827 -3.04512,5.21176 -4.551212,7.16309 -1.506104,1.95132 -2.897859,3.2594 -5.303234,5.30323 -2.405375,2.04383 -5.938056,3.82974 -9.288203,6.67633 -3.350158,2.84659 -8.765367,12.24785 -8.821861,12.30435 -0.05654,0.0565 -0.05607,0.7593 4.3e-4,0.81579 l 3.721824,3.72182 c 0.05654,0.0565 0.759282,0.0569 0.815776,4.3e-4 0.05654,-0.0565 9.457778,-5.47171 12.304354,-8.82186 2.8466,-3.35014 4.632509,-6.88282 6.676339,-9.2882 2.043831,-2.40538 3.351904,-3.79714 5.303237,-5.30324 z"
			style="opacity:1;fill:#000000;fill-opacity:1;stroke:#000000;stroke-width:1.32292;stroke-linecap:round;stroke-linejoin:round;stroke-miterlimit:4;stroke-dasharray:none;stroke-opacity:1"/><path
			style="opacity:1;fill:#000000;fill-opacity:1;stroke:#000000;stroke-width:1.32292;stroke-linecap:round;stroke-linejoin:round;stroke-miterlimit:4;stroke-dasharray:none;stroke-opacity:1"
			d="m 112.38839,234.98642 c 2.44476,0.31482 6.68162,1.74342 8.28325,1.84686 1.60163,0.10343 3.18548,0.16541 4.67189,1e-5 3.21314,-0.35752 5.67107,-2.5298 5.67106,-5.67167 0,-3.14188 -3.02699,-5.49039 -5.67106,-5.67107 -1.33007,-0.0909 -2.95595,-0.0635 -4.67189,0 -1.71593,0.0635 -5.83849,1.53204 -8.28325,1.84687 -2.44478,0.31482 -4.35384,0.25565 -7.49991,0 -3.14606,-0.25565 -6.906873,-1.4908 -11.288626,-1.84687 -4.381765,-0.35608 -14.858584,2.46249 -14.938486,2.46249 -0.07992,-3e-5 -0.57656,0.49725 -0.576549,0.57715 v 5.26346 c 1.2e-5,0.0799 0.496648,0.57714 0.576538,0.57714 0.07992,3e-5 10.556744,2.81858 14.938497,2.4625 4.381753,-0.35606 8.142566,-1.59122 11.288626,-1.84687 3.14607,-0.25565 5.05513,-0.31483 7.49991,0 z"
			id="path893"/><path
			id="path895"
			d="m 95.922315,266.47453 c 1.506092,1.95132 3.491835,5.95741 4.551215,7.16308 1.05938,1.20566 2.13551,2.36942 3.30351,3.30353 2.52484,2.01922 5.7989,2.22121 8.02053,-4.3e-4 2.22164,-2.22165 1.74187,-6.02271 0,-8.02011 -0.87625,-1.00474 -2.04525,-2.13508 -3.30352,-3.30352 -1.25827,-1.16843 -5.21176,-3.04512 -7.16308,-4.55121 -1.951338,-1.5061 -3.259411,-2.89786 -5.303241,-5.30323 -2.043831,-2.40538 -3.82974,-5.93806 -6.676328,-9.2882 -2.846588,-3.35016 -12.247849,-8.76537 -12.304342,-8.82186 -0.05654,-0.0565 -0.759305,-0.0561 -0.815799,4.3e-4 l -3.721824,3.72182 c -0.05654,0.0565 -0.05689,0.75928 -4.19e-4,0.81577 0.05654,0.0565 5.471703,9.45778 8.821861,12.30436 3.350135,2.8466 6.882816,4.63251 9.288192,6.67634 2.405386,2.04383 3.797141,3.3519 5.303245,5.30323 z"
			style="display:inline;opacity:1;fill:#000000;fill-opacity:1;stroke:#000000;stroke-width:1.32292;stroke-linecap:round;stroke-linejoin:round;stroke-miterlimit:4;stroke-dasharray:none;stroke-opacity:1"/><path
			style="display:inline;opacity:1;fill:#000000;fill-opacity:1;stroke:#000000;stroke-width:1.32292;stroke-linecap:round;stroke-linejoin:round;stroke-miterlimit:4;stroke-dasharray:none;stroke-opacity:1"
			d="m 62.013583,277.09672 c -0.314823,2.44475 -1.743422,6.68162 -1.84687,8.28325 -0.103425,1.60163 -0.165398,3.18548 -1.2e-5,4.67189 0.357519,3.21313 2.529799,5.67107 5.671677,5.67106 3.141878,0 5.490387,-3.027 5.671072,-5.67106 0.09086,-1.33008 0.06352,-2.95595 0,-4.67189 -0.06352,-1.71594 -1.532047,-5.8385 -1.84687,-8.28325 -0.314835,-2.44478 -0.255665,-4.35385 -1.2e-5,-7.49991 0.255654,-3.14607 1.490805,-6.90688 1.84687,-11.28863 0.356089,-4.38176 -2.462485,-14.85859 -2.462485,-14.93848 0,-0.08 -0.497253,-0.57656 -0.577154,-0.57656 h -5.263458 c -0.07992,0 -0.577119,0.49667 -0.577131,0.57655 0,0.0799 -2.818585,10.55673 -2.462497,14.93849 0.356053,4.38175 1.591205,8.14256 1.846858,11.28863 0.255654,3.14606 0.314835,5.05514 1.2e-5,7.49991 z"
			id="path897"/><path
			id="path899"
			d="m 30.525467,260.63064 c -1.951319,1.50609 -5.957404,3.49183 -7.163075,4.55121 -1.20566,1.05939 -2.369427,2.13552 -3.30353,3.30352 -2.019225,2.52483 -2.221224,5.79889 4.3e-4,8.02052 2.221642,2.22164 6.022704,1.74189 8.020105,10e-6 1.004743,-0.87626 2.135074,-2.04526 3.303518,-3.30353 1.168432,-1.25825 3.045119,-5.21175 4.551211,-7.16307 1.506092,-1.95134 2.897847,-3.25942 5.303222,-5.30325 2.405387,-2.04383 5.938056,-3.82973 9.288203,-6.67633 3.35017,-2.84658 8.765367,-12.24784 8.821861,-12.30434 0.05654,-0.0565 0.05607,-0.7593 -4.18e-4,-0.81579 l -3.721836,-3.72183 c -0.05654,-0.0565 -0.75927,-0.0569 -0.815764,-4.1e-4 -0.05654,0.0565 -9.45779,5.4717 -12.304354,8.82186 -2.8466,3.35013 -4.632521,6.88281 -6.67634,9.28819 -2.04383,2.40538 -3.351915,3.79715 -5.303233,5.30324 z"
			style="display:inline;opacity:1;fill:#000000;fill-opacity:1;stroke:#000000;stroke-width:1.32292;stroke-linecap:round;stroke-linejoin:round;stroke-miterlimit:4;stroke-dasharray:none;stroke-opacity:1"/><path
			style="opacity:1;fill:#000000;fill-opacity:1;stroke:#000000;stroke-width:1.32292;stroke-linecap:round;stroke-linejoin:round;stroke-miterlimit:4;stroke-dasharray:none;stroke-opacity:1"
			d="m 19.903283,226.72191 c -2.444756,-0.31482 -6.681621,-1.74342 -8.28325,-1.84687 -1.601641,-0.10342 -3.1854818,-0.1654 -4.6718894,-1e-5 -3.213135,0.35752 -5.6710834,2.5298 -5.6710602,5.67167 0,3.14188 3.0269938,5.4904 5.6710602,5.67108 1.3300722,0.0908 2.9559461,0.0635 4.6718894,-1e-5 1.715919,-0.0635 5.838494,-1.53204 8.28325,-1.84686 2.444767,-0.31484 4.353843,-0.25567 7.499897,-2e-5 3.146078,0.25566 6.906875,1.49081 11.288628,1.84687 4.381777,0.35609 14.858596,-2.46248 14.938486,-2.46248 0.07992,0 0.576561,-0.49726 0.576561,-0.57715 l -1.2e-5,-5.26347 c -1.2e-5,-0.0799 -0.49666,-0.57711 -0.576538,-0.57712 -0.07992,0 -10.556744,-2.81859 -14.938485,-2.4625 -4.381753,0.35606 -8.142574,1.5912 -11.288628,1.84686 -3.146066,0.25566 -5.055154,0.31483 -7.499909,1e-5 z"
			id="path901"/><path
			id="path903"
			d="m 36.369359,195.2338 c -1.506092,-1.95132 -3.491835,-5.95741 -4.551211,-7.16308 -1.0594,-1.20566 -2.135529,-2.36943 -3.303518,-3.30353 -2.524832,-2.01923 -5.798905,-2.22123 -8.020524,4.3e-4 -2.221642,2.22164 -1.741886,6.0227 -1.1e-5,8.02011 0.87626,1.00474 2.045261,2.13507 3.30353,3.30351 1.258256,1.16843 5.211756,3.04512 7.163075,4.55121 1.95133,1.50609 3.259414,2.89785 5.303233,5.30322 2.043843,2.40539 3.82974,5.93806 6.676328,9.2882 2.8466,3.35018 12.24786,8.76538 12.304354,8.82187 0.05654,0.0565 0.759294,0.0561 0.815787,-4.2e-4 l 3.721825,-3.72184 c 0.05654,-0.0565 0.05689,-0.75927 4.18e-4,-0.81576 -0.05654,-0.0565 -5.471703,-9.45779 -8.821861,-12.30435 -3.350135,-2.8466 -6.882816,-4.63253 -9.288191,-6.67634 -2.405375,-2.04383 -3.797153,-3.35192 -5.303234,-5.30323 z"
			style="display:inline;opacity:1;fill:#000000;fill-opacity:1;stroke:#000000;stroke-width:1.32292;stroke-linecap:round;stroke-linejoin:round;stroke-miterlimit:4;stroke-dasharray:none;stroke-opacity:1"/><path
			id="circle888"
			d="m 66.128607,183.55653 a 47.361252,47.361252 0 0 0 -47.361496,47.36092 47.361252,47.361252 0 0 0 47.361496,47.36151 47.361252,47.361252 0 0 0 47.360923,-47.36151 47.361252,47.361252 0 0 0 -47.360923,-47.36092 z m 0,8.90009 a 38.460782,38.460782 0 0 1 38.460863,38.46083 38.460782,38.460782 0 0 1 -38.460863,38.46083 38.460782,38.460782 0 0 1 -38.460804,-38.46083 38.460782,38.460782 0 0 1 38.460804,-38.46083 z"
			style="display:inline;opacity:1;fill:#000000;fill-opacity:1;stroke:#000000;stroke-width:1.32292;stroke-linecap:round;stroke-linejoin:round;stroke-miterlimit:4;stroke-dasharray:none;stroke-opacity:1"/></g></g></g></g>
	<g
			inkscape:groupmode="layer"
			id="layer2"
			inkscape:label="MIDI connector"
			transform="matrix(0.44757478,0,0,0.44757478,64.860467,108.36047)"
			style="display:inline"><g
       id="midi"
       transform="matrix(0.08797554,0,0,0.08797554,-139.77125,-236.81107)"><circle
         class="st1"
         cx="88.5"
         cy="88.5"
         r="87.5"
         id="circle38"
         style="fill:#ffffff;fill-opacity:1" /><path
			class="st0"
			d="M 88.5,9 C 44.7,9 9,44.7 9,88.5 c 0,38.4 27.4,70.5 63.6,77.9 0.8,-8.1 7.6,-14.4 15.9,-14.4 8.3,0 15.1,6.3 15.9,14.4 C 140.6,159 168,126.9 168,88.5 168,44.7 132.3,9 88.5,9 Z"
			id="path40"
			style="stroke-width:3.3514;stroke-dasharray:none"/><circle
			class="st0"
			cx="42.400002"
			cy="88.599998"
			r="11"
			id="circle42"
			style="fill:#000000;fill-opacity:1;stroke-width:3.3514;stroke-dasharray:none"/><circle
			class="st0"
			cx="55.900002"
			cy="56"
			r="11"
			id="circle44"
			style="fill:#000000;fill-opacity:1;stroke-width:3.3514;stroke-dasharray:none"/><circle
			class="st0"
			cx="88.400002"
			cy="42.400002"
			r="11"
			id="circle46"
			style="fill:#000000;fill-opacity:1;stroke-width:3.3514;stroke-dasharray:none"/><circle
			class="st0"
			cx="121"
			cy="55.900002"
			r="11"
			id="circle48"
			style="fill:#000000;fill-opacity:1;stroke-width:3.3514;stroke-dasharray:none"/><circle
			class="st0"
			cx="134.60001"
			cy="88.400002"
			r="11"
			id="circle50"
			style="fill:#000000;fill-opacity:1;stroke-width:3.3514;stroke-dasharray:none"/></g></g>
	<style
			type="text/css"
			id="style36">
	.st0{fill:none;stroke:#000;stroke-width:2;}
	.st1{fill:#fff;stroke:#000;stroke-width:2;stroke-linejoin:round;}
	.st2{font-family:Liberation Sans,Arial;}
	.st3{font-size:17px;}
</style>
	<metadata
			id="metadata1333"><rdf:RDF><cc:Work
         rdf:about=""><cc:license
           rdf:resource="http://creativecommons.org/licenses/by-sa/4.0/" /><dc:title>MIDI Explorer Logo</dc:title><dc:date>2022-07-12</dc:date><dc:creator><cc:Agent><dc:title>Raphaël Doursenaud</dc:title></cc:Agent></dc:creator><dc:rights><cc:Agent><dc:title>Creative Commons Attribution-Share Alike 4.0 International</dc:title></cc:Agent></dc:rights><dc:source>https://commons.wikimedia.org/wiki/File:MIDI_connector2.svg, https://commons.wikimedia.org/wiki/File:Steering_Wheel_Black.svg</dc:source><dc:contributor><cc:Agent><dc:title>https://commons.wikimedia.org/wiki/User:Fred_the_Oyster
https://commons.wikimedia.org/wiki/User:Spider</dc:title></cc:Agent></dc:contributor><dc:description>Logo for https://github.com/ematech/midiexplorer</dc:description></cc:Work><cc:License
			rdf:about="http://creativecommons.org/licenses/by-sa/4.0/"><cc:permits
           rdf:resource="http://creativecommons.org/ns#Reproduction" />
		<cc:permits
				rdf:resource="http://creativecommons.org/ns#Distribution"/>
		<cc:requires
				rdf:resource="http://creativecommons.org/ns#Notice"/>
		<cc:requires
				rdf:resource="http://creativecommons.org/ns#Attribution"/>
		<cc:permits
				rdf:resource="http://creativecommons.org/ns#DerivativeWorks"/>
		<cc:requires
				rdf:resource="http://creativecommons.org/ns#ShareAlike"/></cc:License></rdf:RDF></metadata></svg>
