<?xml version="1.0" encoding="UTF-8" standalone="no"?>
<svg
        xmlns:dc="http://purl.org/dc/elements/1.1/"
        xmlns:cc="http://creativecommons.org/ns#"
        xmlns:rdf="http://www.w3.org/1999/02/22-rdf-syntax-ns#"
        xmlns="http://www.w3.org/2000/svg"
        id="svg8"
        version="1.1"
        viewBox="0 0 132.29166 132.29167"
        height="500"
        width="500">
    <defs
            id="defs2"/>
    <metadata
            id="metadata5">
        <rdf:RDF>
            <cc:Work
                    rdf:about="">
                <dc:format>image/svg+xml</dc:format>
                <dc:type
                        rdf:resource="http://purl.org/dc/dcmitype/StillImage"/>
                <dc:title></dc:title>
            </cc:Work>
        </rdf:RDF>
    </metadata>
    <g
            transform="translate(0,-164.70832)"
            id="layer1">
        <path
                id="path864"
                transform="matrix(0.26458333,0,0,0.26458333,0,164.70832)"
                d="M 251.16211 4.8261719 C 239.28729 4.8261719 230.41142 16.266468 229.72852 26.259766 C 229.38511 31.286802 229.48844 37.432526 229.72852 43.917969 C 229.94195 49.683808 234.34594 62.628838 236.1582 71.925781 A 179.00316 179.00316 0 0 0 135.50781 112.65234 C 130.1462 104.76475 123.81894 92.351733 120.25781 88.298828 C 116.25378 83.742003 112.18593 79.342957 107.77148 75.8125 C 98.228812 68.180765 85.855655 67.417628 77.458984 75.814453 C 69.062227 84.211203 70.873567 98.577687 77.457031 106.12695 C 80.76888 109.9244 85.187697 114.19713 89.943359 118.61328 C 94.159862 122.52877 106.37451 128.546 114.23242 133.82812 A 179.00316 179.00316 0 0 0 71.833984 233.82227 C 62.470648 232.02582 49.284682 227.74898 43.917969 227.40234 C 37.864522 227.01147 31.877684 226.77725 26.259766 227.40234 C 14.115633 228.7536 4.8260842 236.96311 4.8261719 248.83789 C 4.8261719 260.71271 16.266444 269.5886 26.259766 270.27148 C 31.28681 270.61467 37.432514 270.51152 43.917969 270.27148 C 49.618131 270.06054 62.341245 265.74964 71.613281 263.90039 A 179.00316 179.00316 0 0 0 112.36523 364.68945 C 104.46627 370.00774 92.301483 376.2252 88.298828 379.74219 C 83.742003 383.74618 79.342968 387.81403 75.8125 392.22852 C 68.180783 401.77118 67.417651 414.14626 75.814453 422.54297 C 84.21121 430.93972 98.577721 429.12645 106.12695 422.54297 C 109.92441 419.23112 114.19711 414.81231 118.61328 410.05664 C 122.48173 405.89082 128.4029 393.90838 133.63867 386.04297 A 179.00316 179.00316 0 0 0 233.7832 428.37109 C 231.96372 437.72069 227.74639 450.75529 227.40234 456.08203 C 227.01145 462.13544 226.77726 468.12231 227.40234 473.74023 C 228.7536 485.88435 236.96308 495.17387 248.83789 495.17383 C 260.71271 495.17383 269.58858 483.73353 270.27148 473.74023 C 270.61489 468.71316 270.51156 462.56747 270.27148 456.08203 C 270.06167 450.41414 265.79799 437.80102 263.93164 428.54297 A 179.00316 179.00316 0 0 0 364.66211 387.5957 C 369.98644 395.49351 376.21915 407.69164 379.74219 411.70117 C 383.74614 416.258 387.81403 420.65701 392.22852 424.1875 C 401.77122 431.8192 414.14626 432.5823 422.54297 424.18555 C 430.93972 415.78876 429.12641 401.42228 422.54297 393.87305 C 419.23116 390.0756 414.81231 385.80287 410.05664 381.38672 C 405.87327 377.50203 393.81076 371.54878 385.94727 366.29688 A 179.00316 179.00316 0 0 0 428.0918 266.16406 C 437.45958 267.95187 450.70086 272.25012 456.08203 272.59766 C 462.13544 272.98857 468.12231 273.22279 473.74023 272.59766 C 485.88439 271.2464 495.17387 263.03689 495.17383 251.16211 C 495.17383 239.28729 483.73357 230.4114 473.74023 229.72852 C 468.7132 229.38496 462.56747 229.48852 456.08203 229.72852 C 450.34901 229.94067 437.51553 234.29774 428.23047 236.12891 A 179.00316 179.00316 0 0 0 387.30859 135.53516 C 395.1941 130.16775 407.64139 123.82497 411.70117 120.25781 C 416.258 116.25382 420.65704 112.18597 424.1875 107.77148 C 431.81924 98.228782 432.5823 85.855734 424.18555 77.458984 C 415.7888 69.062235 401.42228 70.875539 393.87305 77.458984 C 390.07557 80.770795 385.80283 85.187731 381.38672 89.943359 C 377.45483 94.177563 371.40346 106.47422 366.10547 114.32812 A 179.00316 179.00316 0 0 0 266.12695 72.115234 C 267.88981 62.736551 272.24749 49.339417 272.59766 43.917969 C 272.98855 37.864564 273.22278 31.877731 272.59766 26.259766 C 271.2464 14.115614 263.03688 4.8261719 251.16211 4.8261719 z M 236.50586 105.62109 C 235.21934 117.08558 230.99787 130.61557 229.72852 146.23633 C 228.38271 162.79731 239.03516 202.39528 239.03516 202.69727 C 239.03516 202.99925 240.91485 204.87695 241.2168 204.87695 L 261.10938 204.87695 C 261.41143 204.87695 263.29102 202.99925 263.29102 202.69727 C 263.29102 202.39528 273.94346 162.79731 272.59766 146.23633 C 271.33543 130.70326 267.15176 117.23572 265.83984 105.8125 A 145.36359 145.36359 0 0 1 342.60742 138.31836 C 333.5869 145.53383 321.0065 152.12269 309.03711 162.29297 C 296.37509 173.05173 275.90883 208.58528 275.69531 208.79883 C 275.48162 209.01237 275.48372 211.66931 275.69727 211.88281 L 289.76367 225.94922 C 289.97737 226.16276 292.63218 226.1646 292.8457 225.95117 C 293.0594 225.73763 328.59285 205.26941 339.35156 192.60742 C 349.46263 180.70779 356.03291 168.20055 363.19922 159.19141 A 145.36359 145.36359 0 0 1 394.51758 236.51953 C 383.02334 235.25191 369.44801 231.00306 353.76367 229.72852 C 337.20267 228.3827 297.60473 239.03516 297.30273 239.03516 C 297.00067 239.03504 295.12301 240.91481 295.12305 241.2168 L 295.12305 261.10938 C 295.12309 261.41136 297.00079 263.29102 297.30273 263.29102 C 297.60479 263.29113 337.20272 273.94347 353.76367 272.59766 C 369.39879 271.32715 382.93895 267.10064 394.41016 265.81836 A 145.36359 145.36359 0 0 1 361.89062 342.86328 C 354.59305 333.8256 347.97527 321.12176 337.70703 309.03711 C 326.94827 296.37509 291.41469 275.90882 291.20117 275.69531 C 290.98748 275.48177 288.33071 275.48361 288.11719 275.69727 L 274.05078 289.76367 C 273.83709 289.97722 273.83735 292.6322 274.05078 292.8457 C 274.26448 293.05925 294.73056 328.59283 307.39258 339.35156 C 319.41377 349.56593 332.04963 356.16766 341.07812 363.41992 A 145.36359 145.36359 0 0 1 263.44727 394.8457 C 264.66865 383.28156 268.98473 369.59846 270.27148 353.76367 C 271.61733 337.20269 260.96484 297.60468 260.96484 297.30273 C 260.96484 297.00037 259.08519 295.12305 258.7832 295.12305 L 238.89062 295.12305 C 238.58857 295.12305 236.70903 297.00083 236.70898 297.30273 C 236.70898 297.60472 226.0565 337.20269 227.40234 353.76367 C 228.68338 369.52866 232.96782 383.16154 234.21094 394.69336 A 145.36359 145.36359 0 0 1 157.02734 361.98047 C 166.07175 354.64741 178.82882 348.01728 190.96289 337.70703 C 203.62495 326.9483 224.09117 291.41472 224.30469 291.20117 C 224.51838 290.98763 224.51623 288.33265 224.30273 288.11914 L 210.23633 274.05078 C 210.02263 273.83724 207.36782 273.83728 207.1543 274.05078 C 206.9406 274.26432 171.4071 294.73056 160.64844 307.39258 C 150.41353 319.43792 143.80461 332.09878 136.53516 341.13086 A 145.36359 145.36359 0 0 1 105.29297 263.46094 C 116.8277 264.70215 130.4651 268.98992 146.23633 270.27148 C 162.79738 271.61734 202.39532 260.96484 202.69727 260.96484 C 202.99933 260.96484 204.87695 259.08515 204.87695 258.7832 L 204.87695 238.89062 C 204.87691 238.58864 202.99917 236.70902 202.69727 236.70898 C 202.39521 236.70898 162.79724 226.05649 146.23633 227.40234 C 130.57345 228.67511 117.01349 232.91538 105.5293 234.18945 A 145.36359 145.36359 0 0 1 138.22852 157.2832 C 145.47908 166.31137 152.08072 178.94413 162.29297 190.96289 C 173.05177 203.62499 208.58531 224.09118 208.79883 224.30469 C 209.01252 224.51823 211.66734 224.51635 211.88086 224.30273 L 225.94922 210.23633 C 226.16291 210.02278 226.16266 207.3678 225.94922 207.1543 C 225.73552 206.94075 205.26944 171.40709 192.60742 160.64844 C 180.68311 150.51638 168.14997 143.93949 159.13672 136.75586 A 145.36359 145.36359 0 0 1 236.50586 105.62109 z "
                style="opacity:1;fill:#000000;fill-opacity:1;stroke:none;stroke-width:5;stroke-linecap:round;stroke-linejoin:round;stroke-miterlimit:4;stroke-dasharray:none;stroke-opacity:1"/>
        <circle
                style="opacity:1;fill:#000000;fill-opacity:1;stroke:none;stroke-width:1.32291667;stroke-linecap:round;stroke-linejoin:round;stroke-miterlimit:4;stroke-dasharray:none;stroke-opacity:1"
                id="circle884"
                cx="66.128372"
                cy="230.91759"
                r="9.4403734"/>
    </g>
</svg>
